<svg width="14" height="14" viewBox="0 0 14 14" fill="none" xmlns="http://www.w3.org/2000/svg">
<path d="M5.60344 1.40006C4.48885 1.40006 3.41991 1.84283 2.63177 2.63097C1.84363 3.4191 1.40086 4.48805 1.40086 5.60264C1.40086 6.71723 1.84363 7.78618 2.63177 8.57431C3.41991 9.36245 4.48885 9.80522 5.60344 9.80522C6.71804 9.80522 7.78698 9.36245 8.57512 8.57431C9.36325 7.78618 9.80602 6.71723 9.80602 5.60264C9.80602 4.48805 9.36325 3.4191 8.57512 2.63097C7.78698 1.84283 6.71804 1.40006 5.60344 1.40006ZM3.46126e-08 5.60264C0.000127707 4.7109 0.213084 3.83206 0.621169 3.03917C1.02925 2.24627 1.62068 1.56223 2.3463 1.04388C3.07193 0.52553 3.91078 0.187848 4.79315 0.0588965C5.67553 -0.0700549 6.57593 0.0134488 7.41955 0.302468C8.26316 0.591487 9.0256 1.07767 9.64353 1.72062C10.2614 2.36357 10.717 3.14471 10.9723 3.99913C11.2276 4.85354 11.2753 5.75656 11.1115 6.63312C10.9476 7.50968 10.5769 8.33447 10.0302 9.03895L13.8034 12.8122C13.931 12.9443 14.0016 13.1212 14 13.3049C13.9984 13.4885 13.9247 13.6642 13.7948 13.794C13.665 13.9239 13.4893 13.9976 13.3057 13.9992C13.122 14.0008 12.9451 13.9302 12.813 13.8026L9.03975 10.0294C8.21147 10.6724 7.21935 11.0702 6.17623 11.1774C5.13311 11.2845 4.08084 11.0969 3.13908 10.6357C2.19732 10.1745 1.40387 9.45835 0.848939 8.56861C0.294012 7.67886 -0.000116496 6.65126 3.46126e-08 5.60264V5.60264Z" fill="black"/>
</svg>
