<svg width="43" height="43" viewBox="0 0 43 43" fill="none" xmlns="http://www.w3.org/2000/svg">
<rect width="43" height="43" rx="8" fill="white"/>
<path fill-rule="evenodd" clip-rule="evenodd" d="M30.64 22.2046C30.64 21.5664 30.5827 20.9527 30.4764 20.3636H22V23.845H26.8436C26.635 24.97 26.0009 25.9232 25.0477 26.5614V28.8196H27.9564C29.6582 27.2527 30.64 24.9455 30.64 22.2046Z" fill="#4285F4"/>
<path fill-rule="evenodd" clip-rule="evenodd" d="M22 31C24.43 31 26.4673 30.1941 27.9564 28.8196L25.0477 26.5614C24.2418 27.1014 23.2109 27.4205 22 27.4205C19.6559 27.4205 17.6718 25.8373 16.9641 23.71H13.9573V26.0418C15.4382 28.9832 18.4818 31 22 31Z" fill="#34A853"/>
<path fill-rule="evenodd" clip-rule="evenodd" d="M16.9641 23.71C16.7841 23.17 16.6818 22.5932 16.6818 22C16.6818 21.4068 16.7841 20.83 16.9641 20.29V17.9582H13.9573C13.3477 19.1732 13 20.5477 13 22C13 23.4523 13.3477 24.8268 13.9573 26.0418L16.9641 23.71Z" fill="#FBBC05"/>
<path fill-rule="evenodd" clip-rule="evenodd" d="M22 16.5795C23.3214 16.5795 24.5077 17.0336 25.4405 17.9255L28.0218 15.3441C26.4632 13.8918 24.4259 13 22 13C18.4818 13 15.4382 15.0168 13.9573 17.9582L16.9641 20.29C17.6718 18.1627 19.6559 16.5795 22 16.5795Z" fill="#EA4335"/>
</svg>
