<svg width="35" height="35" viewBox="0 0 35 35" fill="none" xmlns="http://www.w3.org/2000/svg">
<g clip-path="url(#clip0_517_1650)">
<path d="M17.5 35C27.165 35 35 27.165 35 17.5C35 7.83502 27.165 0 17.5 0C7.83502 0 0 7.83502 0 17.5C0 27.165 7.83502 35 17.5 35Z" fill="white"/>
<path d="M17.4993 9C16.9067 9 16.4279 9.47486 16.4279 10.0625V10.7C13.9837 11.1914 12.1422 13.3363 12.1422 15.9063V16.5305C12.1422 18.0911 11.5629 19.5984 10.5184 20.7673L10.2706 21.0428C9.98935 21.3549 9.92232 21.8032 10.0931 22.185C10.2638 22.5669 10.6489 22.8126 11.0708 22.8126H23.9277C24.3497 22.8126 24.7313 22.5669 24.9054 22.185C25.0795 21.8032 25.0092 21.3549 24.7279 21.0428L24.4802 20.7673C23.4356 19.5984 22.8563 18.0944 22.8563 16.5305V15.9063C22.8563 13.3363 21.0149 11.1914 18.5706 10.7V10.0625C18.5706 9.47486 18.0919 9 17.4993 9ZM19.016 25.3791C19.4177 24.9807 19.6421 24.4395 19.6421 23.875H17.4993H15.3564C15.3564 24.4395 15.5808 24.9807 15.9826 25.3791C16.3844 25.7776 16.9301 26 17.4993 26C18.0685 26 18.6142 25.7776 19.016 25.3791Z" fill="black"/>
</g>
<defs>
<clipPath id="clip0_517_1650">
<rect width="35" height="35" fill="white"/>
</clipPath>
</defs>
</svg>
