<svg width="12" height="21" viewBox="0 0 12 21" fill="none" xmlns="http://www.w3.org/2000/svg">
<path d="M0 10.3711C0 10.7695 0.152344 11.1094 0.46875 11.4141L9.60938 20.3555C9.85547 20.6133 10.1836 20.7422 10.5586 20.7422C11.3203 20.7422 11.918 20.1562 11.918 19.3828C11.918 19.0078 11.7656 18.668 11.5078 18.4102L3.26953 10.3711L11.5078 2.33203C11.7656 2.0625 11.918 1.72266 11.918 1.34766C11.918 0.585938 11.3203 0 10.5586 0C10.1836 0 9.85547 0.128906 9.60938 0.386719L0.46875 9.32812C0.152344 9.63281 0.0117188 9.97266 0 10.3711Z" fill="white"/>
</svg>
