<svg width="18" height="18" viewBox="0 0 18 18" fill="none" xmlns="http://www.w3.org/2000/svg">
<path d="M14.625 7.3125C14.625 8.92617 14.1012 10.4168 13.2188 11.6262L17.6695 16.0805C18.109 16.5199 18.109 17.2336 17.6695 17.673C17.2301 18.1125 16.5164 18.1125 16.077 17.673L11.6262 13.2188C10.4168 14.1047 8.92617 14.625 7.3125 14.625C3.27305 14.625 0 11.352 0 7.3125C0 3.27305 3.27305 0 7.3125 0C11.352 0 14.625 3.27305 14.625 7.3125ZM7.3125 12.375C10.1074 12.375 12.375 10.1074 12.375 7.3125C12.375 4.51758 10.1074 2.25 7.3125 2.25C4.51758 2.25 2.25 4.51758 2.25 7.3125C2.25 10.1074 4.51758 12.375 7.3125 12.375Z" fill="black"/>
</svg>
