<svg width="36" height="35" viewBox="0 0 36 35" fill="none" xmlns="http://www.w3.org/2000/svg">
<path d="M18.167 0C8.52449 0 0.666992 7.8575 0.666992 17.5C0.666992 27.1425 8.52449 35 18.167 35C27.8095 35 35.667 27.1425 35.667 17.5C35.667 7.8575 27.8095 0 18.167 0ZM25.167 18.8125H19.4795V24.5C19.4795 25.2175 18.8845 25.8125 18.167 25.8125C17.4495 25.8125 16.8545 25.2175 16.8545 24.5V18.8125H11.167C10.4495 18.8125 9.85449 18.2175 9.85449 17.5C9.85449 16.7825 10.4495 16.1875 11.167 16.1875H16.8545V10.5C16.8545 9.7825 17.4495 9.1875 18.167 9.1875C18.8845 9.1875 19.4795 9.7825 19.4795 10.5V16.1875H25.167C25.8845 16.1875 26.4795 16.7825 26.4795 17.5C26.4795 18.2175 25.8845 18.8125 25.167 18.8125Z" fill="#F68A58"/>
</svg>
