<svg width="85" height="31" viewBox="0 0 85 31" fill="none" xmlns="http://www.w3.org/2000/svg">
<rect width="85" height="31" rx="10" fill="#F68A58"/>
<g clip-path="url(#clip0_330_3145)">
<path d="M17.3196 9.91484L17.1429 10.25H14.7857C14.3511 10.25 14 10.5852 14 11C14 11.4148 14.3511 11.75 14.7857 11.75H24.2143C24.6489 11.75 25 11.4148 25 11C25 10.5852 24.6489 10.25 24.2143 10.25H21.8571L21.6804 9.91484C21.5478 9.65938 21.2752 9.5 20.9781 9.5H18.0219C17.7248 9.5 17.4522 9.65938 17.3196 9.91484ZM24.2143 12.5H14.7857L15.3062 20.4453C15.3455 21.0383 15.8612 21.5 16.4824 21.5H22.5176C23.1388 21.5 23.6545 21.0383 23.6937 20.4453L24.2143 12.5Z" fill="white"/>
</g>
<path d="M42.5339 21V11.304L40.7259 11.704V10.776L42.9819 9.8H43.8939V21H42.5339Z" fill="white"/>
<path d="M61.3439 16.42V15.284H64.3999V12.372H65.5999V15.284H68.6559V16.42H65.5999V19.348H64.3999V16.42H61.3439Z" fill="white"/>
<defs>
<clipPath id="clip0_330_3145">
<rect width="11" height="12" fill="white" transform="translate(14 9.5)"/>
</clipPath>
</defs>
</svg>
