<svg width="35" height="35" viewBox="0 0 35 35" fill="none" xmlns="http://www.w3.org/2000/svg">
<circle cx="17.5" cy="17.5" r="17.5" fill="#F68A58"/>
<mask id="mask0_236_1251" style="mask-type:alpha" maskUnits="userSpaceOnUse" x="0" y="0" width="35" height="35">
<circle cx="17.5" cy="17.5" r="17.5" fill="#D9D9D9"/>
</mask>
<g mask="url(#mask0_236_1251)">
<path d="M14.8291 18.5012L11.432 11.5012L10.7059 11.2205L9.88233 11.6323C9.88233 11.6323 9.66696 14.0682 9.77939 16.2365C9.82952 17.2034 9.78498 16.5453 9.88792 18.5012C9.91154 18.9501 9.92638 19.7216 9.78498 20.1483C9.56375 20.8158 9.21798 21.088 8.85851 21.6924C7.62484 23.7667 5.77027 27.0453 5.77027 27.0453C5.77027 27.0453 4.71798 28.8608 4.3291 30.1336C4.1125 30.8425 3.96163 31.2466 3.91733 31.9865C3.87144 32.7532 4.12322 33.9424 4.12322 33.9424L4.37589 35.3836H8.13792L8.03498 28.7953L9.27027 25.913L16.4762 23.3395V19.7365L14.8291 18.5012Z" fill="black"/>
<path d="M23.2703 11.0895L25.2206 10.8584C25.2206 10.8584 25.1036 12.3921 25.0203 13.3542C24.9398 14.2831 24.7626 14.7908 24.7115 15.7218C24.674 16.4042 24.6406 16.7921 24.7115 17.4718C24.7752 18.0835 25.0203 19.0159 25.0203 19.0159C25.0203 19.0159 25.2727 20.0422 25.535 20.663C26.0427 21.8647 26.6772 22.3485 27.3879 23.4424C27.9591 24.3215 28.3777 24.8174 28.932 25.7071C29.2565 26.2279 29.2409 26.2218 29.7556 26.9424C30.0511 27.3562 30.2703 27.9718 30.2703 27.9718C30.2703 27.9718 30.3732 28.4963 30.3732 28.8983V28.8983C30.3732 29.3003 30.3732 29.6189 30.0644 30.8542C29.7556 32.0895 29.7081 32.0315 29.6526 32.8101C29.6011 33.533 29.6225 33.9506 29.7556 34.663C29.8397 35.1136 30.0644 35.7953 30.0644 35.7953H27.5938L27.7997 29.6189L25.8438 26.7365L21.6232 24.2659L19.5644 22.5159V19.5306L22.035 15.413L23.2703 11.0895Z" fill="black"/>
<path d="M23.3676 11.9131C23.2911 12.8696 23.1577 13.812 22.9409 14.6925C22.5746 16.181 21.9701 17.4929 21 18.3984C20.6687 18.7075 20.3693 18.9981 20.0735 19.259C19.3842 19.8667 18.7142 20.3132 17.7058 20.4572C17.2267 20.3294 16.7851 20.162 16.3676 19.958C15.4396 19.5046 14.6308 18.8706 13.7941 18.0896C12.9773 17.3272 12.4485 16.392 12.0859 15.284C11.763 14.2974 11.5719 13.1738 11.4264 11.9131C11.4264 11.775 11.4288 11.6378 11.4334 11.5013C11.5853 7.03065 14.1972 3.47192 17.397 3.47192C20.5476 3.47192 23.1282 6.92189 23.3519 11.2955C23.3623 11.4994 23.3676 11.7054 23.3676 11.9131Z" fill="#DBAE7F"/>
<path d="M11.4264 11.9131C11.4264 11.775 11.4288 11.6378 11.4334 11.5013C11.4334 11.5013 11.1303 11.3857 11.0147 11.5013C10.6029 11.9131 10.6296 12.1647 10.6029 12.3249C10.5601 12.5814 10.529 13.2487 10.6029 13.766C10.6677 14.2198 10.7647 14.4573 10.9117 14.8984C11.0147 15.2072 11.3235 15.4131 11.3235 15.4131C11.3235 15.4131 11.6323 15.619 11.9411 15.516C12.0425 15.4823 12.0859 15.284 12.0859 15.284C11.763 14.2974 11.5719 13.1738 11.4264 11.9131Z" fill="#DBAE7F"/>
<path d="M23.3519 11.2955C23.3623 11.4994 23.3676 11.7054 23.3676 11.9131C23.2911 12.8696 23.1577 13.812 22.9409 14.6925C22.9409 14.6925 23.1682 14.8749 23.3676 14.8984C23.6057 14.9264 23.9853 14.6925 23.9853 14.6925C23.9853 14.6925 24.5436 14.2221 24.7058 13.766C24.8815 13.2722 24.7455 12.6907 24.6029 12.2219L24.5983 12.2069C24.4221 11.6273 24.2897 11.1916 23.7794 11.0896C23.5977 11.0532 23.3519 11.2955 23.3519 11.2955Z" fill="#DBAE7F"/>
<path d="M17.7058 20.4572C17.2267 20.3294 16.7851 20.162 16.3676 19.958C16.3676 19.958 16.6535 21.1373 16.3676 21.7955C16.2742 22.0104 16.1923 22.1175 16.0588 22.3102C15.1666 23.5969 14.2058 23.8543 12.5588 24.369C11.0623 24.8366 9.94175 24.6821 8.8529 25.8102C8.47315 26.2036 8.27005 26.4515 8.02937 26.9425C7.68579 27.6434 7.64483 28.1183 7.6176 28.8984C7.5936 29.5861 7.82348 30.6484 7.82348 30.6484L8.02937 32.8102L8.23525 35.3837L27.7941 35.7955C27.7941 35.7955 28.2168 34.1161 28.3088 33.016C28.3858 32.0946 28.4259 31.5738 28.4117 30.6484C28.4012 29.9639 28.3088 28.6177 28.3088 28.6177C28.3088 28.6177 28.2147 28.1676 28.1029 27.8971C27.9544 27.538 27.8123 27.3267 27.5882 27.0455C27.2824 26.6617 26.5588 26.3249 26.5588 26.3249L23.5735 24.7807C23.5735 24.7807 21.5895 23.866 20.5882 22.9278C20.4222 22.7723 20.3858 22.717 20.2794 22.516C20.165 22.2999 20.106 22.1407 20.0735 21.8984C19.9362 20.8768 20.0735 19.259 20.0735 19.259C19.3842 19.8667 18.7142 20.3132 17.7058 20.4572Z" fill="#DBAE7F"/>
<path d="M21 16.3677C21 16.3677 20.8177 15.7055 20.5883 15.3383C20.1324 14.6086 19.507 14.5413 18.8383 14C18.3061 13.5694 17.9394 13.3927 17.5 12.8677C17.221 12.5342 17.1096 12.3119 16.8824 11.9412C16.5252 11.3585 16.2858 11.0417 16.0589 10.3971C15.8677 9.85416 15.75 8.95591 15.75 8.95591V5.55886C15.75 5.55886 15.853 5.6618 15.75 5.86768C15.6471 6.07356 15.6471 6.1765 15.4412 6.58827C15.1967 7.07733 15.0325 7.37441 14.7206 7.82356C14.2564 8.4922 13.4853 9.47062 13.4853 9.47062L12.6618 10.3971L11.4774 11.5576C11.4774 11.5576 11.2715 11.4546 11.1685 11.4546C11.0656 11.4546 9.88238 11.6324 9.88238 11.6324C9.88238 11.6324 9.86817 9.54232 9.98532 8.54415C10.0763 7.76891 10.3971 6.58827 10.3971 6.58827C10.3971 6.58827 10.8279 5.09328 11.4265 4.35169C11.8732 3.79825 12.2293 3.50469 12.8677 3.19121C13.4906 2.88533 14.2059 2.77944 14.6177 2.77944C15.0294 2.77944 16.2647 2.88238 16.2647 2.88238C16.2647 2.88238 16.7027 2.34607 17.0883 2.1618C17.7049 1.86711 18.162 1.83182 18.8383 1.93073C19.5145 2.02965 20.2041 2.25335 21 2.65132C21.8236 3.06309 22.3256 3.66806 22.75 4.0925C23.0589 4.40132 23.9853 6.15132 23.9853 6.15132C23.9853 6.15132 24.5443 7.58716 24.8089 8.54415C25.059 9.44871 25.2206 10.8866 25.2206 10.8866L23.4185 11.1458L23.2647 13.1765C23.2647 13.1765 23.047 12.5342 22.853 12.1471C22.6181 11.6785 22.4633 11.4212 22.1324 11.0147C21.7192 10.5072 20.8971 9.88238 20.8971 9.88238C20.8971 9.88238 20.0064 9.11359 19.353 8.75003C18.9285 8.51387 18.2206 8.23533 18.2206 8.23533C18.2206 8.23533 17.8326 8.00051 17.603 7.82356C17.0396 7.38944 16.3677 6.48533 16.3677 6.48533C16.3677 6.48533 16.3173 8.18944 16.4706 9.26474C16.5051 9.50682 16.4706 9.26474 16.5736 9.88238C16.6492 10.3365 16.6826 10.4463 16.8824 10.8089C17.1255 11.25 17.4046 11.5376 17.7059 11.9412C18.012 12.3512 18.6324 12.8677 18.6324 12.8677C18.6324 12.8677 19.197 13.4323 19.5589 13.7941C19.8403 14.0756 20.2794 14.5147 20.2794 14.5147C20.2794 14.5147 20.6467 14.8552 20.7941 15.1324C21.0239 15.5641 21 16.3677 21 16.3677Z" fill="black"/>
<path d="M14.9265 26.5588C14.2428 25.7196 13.8971 23.9853 13.8971 23.9853L10.3971 24.8088C10.3971 24.8088 11.0158 25.3935 11.3236 25.8382C11.7742 26.4893 12.0271 26.9313 12.25 27.6911C12.4789 28.4713 12.5235 28.9398 12.4559 29.75C12.3967 30.4599 12.1606 30.8222 11.9412 31.5C11.6514 32.3953 11.1177 33.7647 11.1177 33.7647L11.9412 35.1029L20.3824 36.1323L25.3236 33.25C25.3236 33.25 24.7058 32.2089 24.3971 31.5C24.1077 30.8355 23.9081 30.4632 23.7794 29.75C23.6367 28.9587 23.6587 28.486 23.7794 27.6911C23.9265 26.7233 24.603 25.3235 24.603 25.3235L22.0294 23.8823C22.0294 23.8823 21.6177 25.6323 21.103 26.5588C20.6748 27.3295 20.2786 27.7857 19.4559 28.1029C18.6682 28.4066 18.0093 28.5171 17.1912 28.3088C16.1323 28.0391 15.6338 27.4272 14.9476 26.5847L14.9265 26.5588Z" fill="#785757"/>
</g>
</svg>
