<svg width="122" height="31" viewBox="0 0 122 31" fill="none" xmlns="http://www.w3.org/2000/svg">
<rect width="122" height="31" rx="10" fill="#FFD55B"/>
<path d="M22.7143 7C23.975 7 25 7.96094 25 9.14286V19.8571C25 21.0391 23.975 22 22.7143 22H11.2857C10.025 22 9 21.0391 9 19.8571V9.14286C9 7.96094 10.025 7 11.2857 7H22.7143ZM14.7143 10.75C14.2393 10.75 13.8571 11.1083 13.8571 11.5536C13.8571 11.9989 14.2393 12.3571 14.7143 12.3571H18.075L13.25 16.8772C12.9143 17.192 12.9143 17.7009 13.25 18.0123C13.5857 18.3237 14.1286 18.327 14.4607 18.0123L19.2821 13.4922V16.9107C19.2821 17.356 19.6643 17.7143 20.1393 17.7143C20.6143 17.7143 20.9964 17.356 20.9964 16.9107V11.5536C20.9964 11.1083 20.6143 10.75 20.1393 10.75H14.7143Z" fill="black"/>
<path d="M32.8995 19V11.632H30.2595V10.6H36.6315V11.632H34.0035V19H32.8995ZM37.588 19V10.396H38.668V13.984C38.812 13.744 39.024 13.536 39.304 13.36C39.584 13.184 39.908 13.096 40.276 13.096C40.884 13.096 41.376 13.292 41.752 13.684C42.136 14.068 42.328 14.628 42.328 15.364V19H41.26V15.592C41.26 15.088 41.148 14.712 40.924 14.464C40.7 14.208 40.408 14.08 40.048 14.08C39.64 14.08 39.308 14.216 39.052 14.488C38.796 14.752 38.668 15.108 38.668 15.556V19H37.588ZM46.1593 19.132C45.6153 19.132 45.1353 19.016 44.7193 18.784C44.3033 18.552 43.9793 18.212 43.7473 17.764C43.5153 17.308 43.3993 16.76 43.3993 16.12C43.3993 15.504 43.5153 14.972 43.7473 14.524C43.9793 14.068 44.2953 13.716 44.6953 13.468C45.1033 13.22 45.5713 13.096 46.0993 13.096C46.6273 13.096 47.0753 13.228 47.4433 13.492C47.8193 13.748 48.1033 14.092 48.2953 14.524C48.4953 14.956 48.5953 15.428 48.5953 15.94V16.228H44.4553C44.4713 16.868 44.6313 17.356 44.9353 17.692C45.2473 18.02 45.6593 18.184 46.1713 18.184C46.5793 18.184 46.9153 18.084 47.1793 17.884C47.4513 17.684 47.6793 17.384 47.8633 16.984L48.6793 17.524C48.4073 18.084 48.0593 18.492 47.6353 18.748C47.2193 19.004 46.7273 19.132 46.1593 19.132ZM44.5153 15.364H47.5393C47.4753 14.948 47.3153 14.612 47.0593 14.356C46.8033 14.1 46.4793 13.972 46.0873 13.972C45.6713 13.972 45.3273 14.092 45.0553 14.332C44.7833 14.564 44.6033 14.908 44.5153 15.364ZM56.4521 19.18C55.7001 19.18 55.0281 18.996 54.4361 18.628C53.8521 18.26 53.3921 17.748 53.0561 17.092C52.7201 16.428 52.5521 15.66 52.5521 14.788C52.5521 13.908 52.7201 13.14 53.0561 12.484C53.3921 11.828 53.8521 11.316 54.4361 10.948C55.0281 10.58 55.7001 10.396 56.4521 10.396C57.0601 10.396 57.6161 10.504 58.1201 10.72C58.6241 10.936 59.0481 11.22 59.3921 11.572L58.6721 12.424C58.4161 12.128 58.0961 11.9 57.7121 11.74C57.3281 11.572 56.9081 11.488 56.4521 11.488C55.8921 11.488 55.4041 11.628 54.9881 11.908C54.5801 12.18 54.2601 12.564 54.0281 13.06C53.8041 13.556 53.6921 14.132 53.6921 14.788C53.6921 15.444 53.8041 16.02 54.0281 16.516C54.2601 17.012 54.5801 17.4 54.9881 17.68C55.4041 17.96 55.8921 18.1 56.4521 18.1C56.8521 18.1 57.1921 18.064 57.4721 17.992C57.7601 17.912 58.0201 17.8 58.2521 17.656V15.544H56.6921V14.512H59.3801V18.364C59.0601 18.588 58.6521 18.78 58.1561 18.94C57.6601 19.1 57.0921 19.18 56.4521 19.18ZM60.6514 19V13.24H61.6354L61.6954 14.14C61.8554 13.828 62.0954 13.576 62.4154 13.384C62.7434 13.192 63.0954 13.096 63.4714 13.096C63.5994 13.096 63.7194 13.104 63.8314 13.12C63.9434 13.136 64.0394 13.152 64.1194 13.168V14.212C64.0314 14.188 63.9194 14.168 63.7834 14.152C63.6474 14.136 63.4994 14.128 63.3394 14.128C62.8914 14.128 62.5114 14.276 62.1994 14.572C61.8874 14.86 61.7314 15.24 61.7314 15.712V19H60.6514ZM67.4063 19.132C66.8623 19.132 66.3823 19.016 65.9663 18.784C65.5503 18.552 65.2263 18.212 64.9943 17.764C64.7623 17.308 64.6463 16.76 64.6463 16.12C64.6463 15.504 64.7623 14.972 64.9943 14.524C65.2263 14.068 65.5423 13.716 65.9423 13.468C66.3503 13.22 66.8183 13.096 67.3463 13.096C67.8743 13.096 68.3223 13.228 68.6903 13.492C69.0663 13.748 69.3503 14.092 69.5423 14.524C69.7423 14.956 69.8423 15.428 69.8423 15.94V16.228H65.7023C65.7183 16.868 65.8783 17.356 66.1823 17.692C66.4943 18.02 66.9063 18.184 67.4183 18.184C67.8263 18.184 68.1623 18.084 68.4263 17.884C68.6983 17.684 68.9263 17.384 69.1103 16.984L69.9263 17.524C69.6543 18.084 69.3063 18.492 68.8823 18.748C68.4663 19.004 67.9743 19.132 67.4063 19.132ZM65.7623 15.364H68.7863C68.7223 14.948 68.5623 14.612 68.3063 14.356C68.0503 14.1 67.7263 13.972 67.3343 13.972C66.9183 13.972 66.5743 14.092 66.3023 14.332C66.0303 14.564 65.8503 14.908 65.7623 15.364ZM71.2815 21.484C70.9375 21.484 70.6295 21.452 70.3575 21.388V20.392C70.4775 20.424 70.6095 20.448 70.7535 20.464C70.9055 20.488 71.0495 20.5 71.1855 20.5C71.4895 20.5 71.7015 20.44 71.8215 20.32C71.9415 20.2 72.0615 19.988 72.1815 19.684L72.4455 18.988L70.1655 13.24H71.2935L72.9135 17.68L74.4735 13.24H75.5775L73.1055 20.008C72.9295 20.496 72.7055 20.864 72.4335 21.112C72.1695 21.36 71.7855 21.484 71.2815 21.484ZM79.663 19V10.6H82.243C83.123 10.6 83.863 10.772 84.463 11.116C85.071 11.46 85.531 11.948 85.843 12.58C86.163 13.204 86.323 13.944 86.323 14.8C86.323 15.648 86.163 16.388 85.843 17.02C85.531 17.652 85.071 18.14 84.463 18.484C83.863 18.828 83.123 19 82.243 19H79.663ZM80.755 17.968H82.171C82.843 17.968 83.399 17.836 83.839 17.572C84.287 17.3 84.623 16.928 84.847 16.456C85.071 15.976 85.183 15.424 85.183 14.8C85.183 14.168 85.071 13.616 84.847 13.144C84.623 12.672 84.287 12.304 83.839 12.04C83.399 11.768 82.843 11.632 82.171 11.632H80.755V17.968ZM89.8012 19.132C89.2732 19.132 88.8012 19.008 88.3852 18.76C87.9772 18.504 87.6532 18.148 87.4132 17.692C87.1812 17.236 87.0652 16.708 87.0652 16.108C87.0652 15.508 87.1812 14.984 87.4132 14.536C87.6532 14.08 87.9772 13.728 88.3852 13.48C88.8012 13.224 89.2732 13.096 89.8012 13.096C90.3292 13.096 90.7972 13.224 91.2052 13.48C91.6212 13.728 91.9452 14.08 92.1772 14.536C92.4172 14.984 92.5372 15.508 92.5372 16.108C92.5372 16.708 92.4172 17.236 92.1772 17.692C91.9452 18.148 91.6212 18.504 91.2052 18.76C90.7972 19.008 90.3292 19.132 89.8012 19.132ZM89.8012 18.148C90.2892 18.148 90.6852 17.968 90.9892 17.608C91.3012 17.24 91.4572 16.74 91.4572 16.108C91.4572 15.476 91.3012 14.98 90.9892 14.62C90.6852 14.26 90.2892 14.08 89.8012 14.08C89.3132 14.08 88.9132 14.26 88.6012 14.62C88.2972 14.98 88.1452 15.476 88.1452 16.108C88.1452 16.74 88.2972 17.24 88.6012 17.608C88.9132 17.968 89.3132 18.148 89.8012 18.148ZM95.9102 21.484C94.7902 21.484 93.9542 21.044 93.4022 20.164L94.2662 19.576C94.6262 20.184 95.1742 20.488 95.9102 20.488C96.4302 20.488 96.8222 20.32 97.0862 19.984C97.3502 19.656 97.4822 19.144 97.4822 18.448V17.812C97.2902 18.052 97.0542 18.24 96.7742 18.376C96.5022 18.512 96.1982 18.58 95.8622 18.58C95.3662 18.58 94.9222 18.472 94.5302 18.256C94.1382 18.04 93.8302 17.728 93.6062 17.32C93.3902 16.904 93.2822 16.408 93.2822 15.832C93.2822 15.248 93.3902 14.756 93.6062 14.356C93.8302 13.948 94.1382 13.636 94.5302 13.42C94.9222 13.204 95.3662 13.096 95.8622 13.096C96.2142 13.096 96.5342 13.172 96.8222 13.324C97.1182 13.468 97.3662 13.672 97.5662 13.936L97.6022 13.24H98.5502V18.448C98.5502 19.44 98.3222 20.192 97.8662 20.704C97.4182 21.224 96.7662 21.484 95.9102 21.484ZM95.9342 17.632C96.4062 17.632 96.7942 17.468 97.0982 17.14C97.4022 16.812 97.5542 16.376 97.5542 15.832C97.5542 15.288 97.4022 14.856 97.0982 14.536C96.7942 14.216 96.4062 14.056 95.9342 14.056C95.4702 14.056 95.0902 14.216 94.7942 14.536C94.5062 14.856 94.3622 15.288 94.3622 15.832C94.3622 16.376 94.5062 16.812 94.7942 17.14C95.0902 17.468 95.4702 17.632 95.9342 17.632Z" fill="black"/>
<path d="M112.707 15.3948C113.098 15.7296 113.098 16.2731 112.707 16.6078L106.708 21.749C106.318 22.0837 105.683 22.0837 105.293 21.749C104.902 21.4143 104.902 20.8707 105.293 20.536L110.586 16L105.296 11.464C104.905 11.1293 104.905 10.5857 105.296 10.251C105.687 9.91632 106.321 9.91632 106.711 10.251L112.71 15.3922L112.707 15.3948Z" fill="#464545"/>
</svg>
