<svg width="36" height="36" viewBox="0 0 36 36" fill="none" xmlns="http://www.w3.org/2000/svg">
<path d="M18.167 0.666748C8.52449 0.666748 0.666992 8.52425 0.666992 18.1667C0.666992 27.8092 8.52449 35.6667 18.167 35.6667C27.8095 35.6667 35.667 27.8092 35.667 18.1667C35.667 8.52425 27.8095 0.666748 18.167 0.666748ZM25.167 19.4792H19.4795C18.4295 19.4792 18.167 19.4792 18.167 19.4792C17.4495 19.4792 18.1145 19.4792 16.8545 19.4792H11.167C10.4495 19.4792 9.85449 18.8842 9.85449 18.1667C9.85449 17.4492 10.4495 16.8542 11.167 16.8542H16.8545C16.6707 16.8542 18.167 16.8542 18.167 16.8542H19.4795H25.167C25.8845 16.8542 26.4795 17.4492 26.4795 18.1667C26.4795 18.8842 25.8845 19.4792 25.167 19.4792Z" fill="#F68A58"/>
</svg>
