<svg width="35" height="35" viewBox="0 0 35 35" fill="none" xmlns="http://www.w3.org/2000/svg">
<circle cx="17.5" cy="17.5" r="17.5" fill="#F68A58"/>
<path d="M17.4993 9C16.9066 9 16.4278 9.4748 16.4278 10.0625V10.7C13.9837 11.1914 12.1422 13.3363 12.1422 15.9062V16.5305C12.1422 18.091 11.563 19.5984 10.5183 20.7672L10.2706 21.0428C9.98931 21.3549 9.92235 21.8031 10.0931 22.185C10.2639 22.5668 10.6489 22.8125 11.0708 22.8125H23.9277C24.3496 22.8125 24.7313 22.5668 24.9054 22.185C25.0795 21.8031 25.0092 21.3549 24.728 21.0428L24.4802 20.7672C23.4356 19.5984 22.8563 18.0943 22.8563 16.5305V15.9062C22.8563 13.3363 21.0148 11.1914 18.5707 10.7V10.0625C18.5707 9.4748 18.0919 9 17.4993 9ZM19.016 25.3791C19.4178 24.9807 19.6421 24.4395 19.6421 23.875H17.4993H15.3564C15.3564 24.4395 15.5808 24.9807 15.9825 25.3791C16.3843 25.7775 16.9301 26 17.4993 26C18.0684 26 18.6142 25.7775 19.016 25.3791Z" fill="white"/>
</svg>
