<svg width="31" height="31" viewBox="0 0 31 31" fill="none" xmlns="http://www.w3.org/2000/svg">
<circle cx="15.5" cy="15.5" r="15.5" fill="#F68A58"/>
<mask id="mask0_517_1632" style="mask-type:alpha" maskUnits="userSpaceOnUse" x="0" y="0" width="31" height="31">
<circle cx="15.5" cy="15.5" r="15.5" fill="#D9D9D9"/>
</mask>
<g mask="url(#mask0_517_1632)">
<path d="M13.1343 16.3866L10.1254 10.1866L9.48225 9.93793L8.75283 10.3026C8.75283 10.3026 8.56208 12.4602 8.66166 14.3807C8.70606 15.237 8.66661 14.6542 8.75779 16.3866C8.77871 16.7841 8.79185 17.4675 8.66661 17.8454C8.47066 18.4366 8.16441 18.6777 7.84602 19.213C6.75334 21.0502 5.11073 23.9542 5.11073 23.9542C5.11073 23.9542 4.1787 25.5621 3.83426 26.6895C3.64241 27.3174 3.50878 27.6753 3.46955 28.3307C3.4289 29.0097 3.6519 30.063 3.6519 30.063L3.8757 31.3395H7.20779L7.11661 25.5042L8.21073 22.9513L14.5931 20.6718V17.4807L13.1343 16.3866Z" fill="black"/>
<path d="M20.6107 9.82184L22.3381 9.61719C22.3381 9.61719 22.2346 10.9756 22.1607 11.8277C22.0894 12.6505 21.9325 13.1001 21.8872 13.9248C21.854 14.5292 21.8244 14.8727 21.8872 15.4748C21.9437 16.0165 22.1607 16.8424 22.1607 16.8424C22.1607 16.8424 22.3843 17.7514 22.6166 18.3013C23.0663 19.3656 23.6283 19.7941 24.2578 20.763C24.7637 21.5416 25.1344 21.9809 25.6254 22.7689C25.9129 23.2302 25.899 23.2248 26.3548 23.863C26.6166 24.2295 26.8107 24.7748 26.8107 24.7748C26.8107 24.7748 26.9019 25.2393 26.9019 25.5954C26.9019 25.9514 26.9019 26.2336 26.6284 27.3277C26.3548 28.4218 26.3128 28.3705 26.2637 29.0601C26.2181 29.7004 26.237 30.0703 26.3548 30.7013C26.4294 31.1003 26.6284 31.7042 26.6284 31.7042H24.4401L24.6225 26.2336L22.8901 23.6807L19.1519 21.4924L17.3284 19.9424V17.2983L19.5166 13.6513L20.6107 9.82184Z" fill="black"/>
<path d="M20.6969 10.5507C20.6291 11.3979 20.511 12.2326 20.319 13.0125C19.9945 14.3308 19.4592 15.4928 18.5999 16.2948C18.3065 16.5686 18.0413 16.826 17.7793 17.057C17.1688 17.5953 16.5753 17.9907 15.6822 18.1183C15.2578 18.0052 14.8667 17.8569 14.4969 17.6762C13.675 17.2746 12.9587 16.713 12.2175 16.0213C11.4941 15.3461 11.0257 14.5177 10.7046 13.5364C10.4186 12.6625 10.2493 11.6673 10.1205 10.5507C10.1205 10.4284 10.1225 10.3068 10.1266 10.186C10.2612 6.22623 12.5746 3.07422 15.4087 3.07422C18.1992 3.07422 20.4848 6.1299 20.683 10.0036C20.6922 10.1843 20.6969 10.3667 20.6969 10.5507Z" fill="#DBAE7F"/>
<path d="M10.1205 10.5507C10.1205 10.4284 10.1225 10.3068 10.1266 10.186C10.1266 10.186 9.85816 10.0836 9.75574 10.186C9.39104 10.5507 9.41468 10.7736 9.39104 10.9154C9.35317 11.1426 9.32558 11.7336 9.39104 12.1919C9.44845 12.5938 9.53434 12.8041 9.66457 13.1948C9.75574 13.4683 10.0293 13.6507 10.0293 13.6507C10.0293 13.6507 10.3028 13.833 10.5763 13.7419C10.6661 13.712 10.7046 13.5364 10.7046 13.5364C10.4186 12.6625 10.2493 11.6673 10.1205 10.5507Z" fill="#DBAE7F"/>
<path d="M20.683 10.0036C20.6922 10.1843 20.6969 10.3667 20.6969 10.5507C20.6291 11.3979 20.511 12.2326 20.319 13.0125C20.319 13.0125 20.5203 13.174 20.6969 13.1948C20.9078 13.2196 21.244 13.0125 21.244 13.0125C21.244 13.0125 21.7385 12.5958 21.8822 12.1919C22.0378 11.7545 21.9173 11.2395 21.791 10.8242L21.787 10.8109C21.6309 10.2976 21.5136 9.91168 21.0616 9.82128C20.9007 9.78909 20.683 10.0036 20.683 10.0036Z" fill="#DBAE7F"/>
<path d="M15.6822 18.1183C15.2578 18.0052 14.8667 17.8569 14.4969 17.6762C14.4969 17.6762 14.7502 18.7207 14.4969 19.3036C14.4142 19.4941 14.3417 19.5889 14.2234 19.7595C13.4332 20.8992 12.5822 21.1272 11.1234 21.583C9.79794 21.9972 8.80545 21.8604 7.84104 22.8595C7.50469 23.208 7.3248 23.4276 7.11162 23.8625C6.80731 24.4832 6.77103 24.9039 6.74692 25.5948C6.72566 26.2039 6.92927 27.1448 6.92927 27.1448L7.11162 29.0595L7.29398 31.3389L24.6175 31.7036C24.6175 31.7036 24.9919 30.2162 25.0734 29.2419C25.1416 28.4258 25.1771 27.9644 25.1646 27.1448C25.1553 26.5385 25.0734 25.3462 25.0734 25.3462C25.0734 25.3462 24.9901 24.9475 24.891 24.708C24.7595 24.3899 24.6336 24.2027 24.4352 23.9536C24.1643 23.6137 23.5234 23.3154 23.5234 23.3154L20.8793 21.9477C20.8793 21.9477 19.122 21.1376 18.2352 20.3066C18.0882 20.1689 18.0559 20.1199 17.9616 19.9419C17.8603 19.7504 17.8081 19.6095 17.7793 19.3948C17.6577 18.49 17.7793 17.057 17.7793 17.057C17.1688 17.5953 16.5753 17.9907 15.6822 18.1183Z" fill="#DBAE7F"/>
<path d="M18.6 14.497C18.6 14.497 18.4385 13.9104 18.2353 13.5852C17.8315 12.939 17.2776 12.8793 16.6853 12.3999C16.2139 12.0185 15.8891 11.862 15.5 11.397C15.2528 11.1016 15.1542 10.9048 14.9529 10.5764C14.6366 10.0603 14.4245 9.77971 14.2235 9.20875C14.0542 8.72787 13.95 7.93228 13.95 7.93228V4.92345C13.95 4.92345 14.0412 5.01463 13.95 5.19698C13.8588 5.37934 13.8588 5.47051 13.6765 5.83522C13.4599 6.26839 13.3144 6.53152 13.0382 6.92934C12.627 7.52156 11.9441 8.38816 11.9441 8.38816L11.2147 9.20875L10.1656 10.2366C10.1656 10.2366 9.98328 10.1454 9.8921 10.1454C9.80092 10.1454 8.75292 10.3029 8.75292 10.3029C8.75292 10.3029 8.74034 8.45167 8.8441 7.56757C8.92469 6.88093 9.20881 5.83522 9.20881 5.83522C9.20881 5.83522 9.5904 4.51109 10.1206 3.85425C10.5162 3.36406 10.8316 3.10405 11.397 2.82639C11.9488 2.55547 12.5823 2.46169 12.947 2.46169C13.3117 2.46169 14.4059 2.55286 14.4059 2.55286C14.4059 2.55286 14.7938 2.07784 15.1353 1.91463C15.6814 1.65362 16.0863 1.62236 16.6853 1.70997C17.2842 1.79759 17.895 1.99572 18.6 2.34821C19.3294 2.71292 19.7741 3.24875 20.15 3.62468C20.4235 3.89821 21.2441 5.44821 21.2441 5.44821C21.2441 5.44821 21.7392 6.71995 21.9735 7.56757C22.195 8.36876 22.3382 9.64233 22.3382 9.64233L20.7421 9.8719L20.6059 11.6705C20.6059 11.6705 20.413 11.1016 20.2412 10.7587C20.0331 10.3437 19.896 10.1159 19.6029 9.75581C19.237 9.30627 18.5088 8.75286 18.5088 8.75286C18.5088 8.75286 17.7199 8.07194 17.1412 7.74992C16.7652 7.54075 16.1382 7.29404 16.1382 7.29404C16.1382 7.29404 15.7945 7.08606 15.5912 6.92934C15.0922 6.54483 14.497 5.74404 14.497 5.74404C14.497 5.74404 14.4524 7.2534 14.5882 8.20581C14.6188 8.42023 14.5882 8.20581 14.6794 8.75286C14.7464 9.15507 14.776 9.25237 14.9529 9.57345C15.1682 9.96421 15.4155 10.2189 15.6823 10.5764C15.9534 10.9396 16.5029 11.397 16.5029 11.397C16.5029 11.397 17.0031 11.8971 17.3235 12.2176C17.5728 12.4668 17.9618 12.8558 17.9618 12.8558C17.9618 12.8558 18.287 13.1574 18.4176 13.4029C18.6211 13.7853 18.6 14.497 18.6 14.497Z" fill="black"/>
<path d="M13.2205 23.5229C12.615 22.7796 12.3087 21.2435 12.3087 21.2435L9.20874 21.9729C9.20874 21.9729 9.75672 22.4908 10.0293 22.8847C10.4285 23.4614 10.6525 23.8529 10.8499 24.5259C11.0526 25.2169 11.0921 25.6318 11.0323 26.3494C10.9799 26.9782 10.7707 27.2991 10.5764 27.8994C10.3197 28.6924 9.84698 29.9053 9.84698 29.9053L10.5764 31.0906L18.0529 32.0023L22.4293 29.4494C22.4293 29.4494 21.8822 28.5274 21.6087 27.8994C21.3525 27.3109 21.1757 26.9811 21.0617 26.3494C20.9352 25.6486 20.9547 25.2299 21.0617 24.5259C21.1919 23.6686 21.7911 22.4288 21.7911 22.4288L19.5117 21.1523C19.5117 21.1523 19.147 22.7023 18.6911 23.5229C18.3118 24.2056 17.9609 24.6096 17.2323 24.8906C16.5346 25.1596 15.951 25.2575 15.2264 25.0729C14.2885 24.8341 13.847 24.2921 13.2392 23.5459L13.2205 23.5229Z" fill="#785757"/>
</g>
</svg>
