<svg width="25" height="28" viewBox="0 0 25 28" fill="none" xmlns="http://www.w3.org/2000/svg">
<path d="M1.375 0.119402C1.90625 -0.0938928 2.53125 -0.0173252 2.975 0.31629L5.5 2.2086L8.025 0.31629C8.5875 -0.104831 9.41875 -0.104831 9.975 0.31629L12.5 2.2086L15.025 0.31629C15.5875 -0.104831 16.4187 -0.104831 16.975 0.31629L19.5 2.2086L22.025 0.31629C22.4687 -0.0173252 23.0937 -0.0938928 23.625 0.119402C24.1562 0.332698 24.5 0.797572 24.5 1.31167V26.6883C24.5 27.2024 24.1562 27.6673 23.625 27.8806C23.0937 28.0939 22.4687 28.0173 22.025 27.6837L19.5 25.7914L16.975 27.6837C16.4125 28.1048 15.5812 28.1048 15.025 27.6837L12.5 25.7914L9.975 27.6837C9.4125 28.1048 8.58125 28.1048 8.025 27.6837L5.5 25.7914L2.975 27.6837C2.53125 28.0173 1.90625 28.0939 1.375 27.8806C0.84375 27.6673 0.5 27.2024 0.5 26.6883V1.31167C0.5 0.797572 0.84375 0.332698 1.375 0.119402ZM6.5 7.8746C5.95 7.8746 5.5 8.26837 5.5 8.74966C5.5 9.23094 5.95 9.62471 6.5 9.62471H18.5C19.05 9.62471 19.5 9.23094 19.5 8.74966C19.5 8.26837 19.05 7.8746 18.5 7.8746H6.5ZM5.5 19.2503C5.5 19.7316 5.95 20.1254 6.5 20.1254H18.5C19.05 20.1254 19.5 19.7316 19.5 19.2503C19.5 18.7691 19.05 18.3753 18.5 18.3753H6.5C5.95 18.3753 5.5 18.7691 5.5 19.2503ZM6.5 13.1249C5.95 13.1249 5.5 13.5187 5.5 14C5.5 14.4813 5.95 14.8751 6.5 14.8751H18.5C19.05 14.8751 19.5 14.4813 19.5 14C19.5 13.5187 19.05 13.1249 18.5 13.1249H6.5Z" fill="#F78A58"/>
</svg>
