<svg width="600" height="600" viewBox="0 0 600 600" fill="none" xmlns="http://www.w3.org/2000/svg">
<path fill-rule="evenodd" clip-rule="evenodd" d="M600 233.354V600H233.333L233.357 466.674H299.996L299.973 533.337H533.361V300.017L500 300.016V299.983H466.684L466.685 233.354H600ZM66.6667 466.674V533.362H166.667V600H0V466.674H66.6667ZM466.667 366.68V466.674H366.667V366.68H466.667ZM400 0.0333315V299.983H333.333L333.333 66.6963H66.6667V333.348L300 333.348V400.011H0V0.0333315H400ZM266.667 133.359V266.685H133.333V133.359H266.667ZM466.667 0L600 0.0333315V133.326L533.353 133.293V66.663H466.667V0Z" fill="#838383"/>
</svg>
