<svg width="37" height="36" viewBox="0 0 37 36" fill="none" xmlns="http://www.w3.org/2000/svg">
<path d="M13.375 8.1194C13.9062 7.90611 14.5312 7.98267 14.975 8.31629L17.5 10.2086L20.025 8.31629C20.5875 7.89517 21.4187 7.89517 21.975 8.31629L24.5 10.2086L27.025 8.31629C27.5875 7.89517 28.4187 7.89517 28.975 8.31629L31.5 10.2086L34.025 8.31629C34.4687 7.98267 35.0937 7.90611 35.625 8.1194C36.1562 8.3327 36.5 8.79757 36.5 9.31167V34.6883C36.5 35.2024 36.1562 35.6673 35.625 35.8806C35.0937 36.0939 34.4687 36.0173 34.025 35.6837L31.5 33.7914L28.975 35.6837C28.4125 36.1048 27.5812 36.1048 27.025 35.6837L24.5 33.7914L21.975 35.6837C21.4125 36.1048 20.5812 36.1048 20.025 35.6837L17.5 33.7914L14.975 35.6837C14.5312 36.0173 13.9062 36.0939 13.375 35.8806C12.8437 35.6673 12.5 35.2024 12.5 34.6883V9.31167C12.5 8.79757 12.8437 8.3327 13.375 8.1194ZM18.5 15.8746C17.95 15.8746 17.5 16.2684 17.5 16.7497C17.5 17.2309 17.95 17.6247 18.5 17.6247H30.5C31.05 17.6247 31.5 17.2309 31.5 16.7497C31.5 16.2684 31.05 15.8746 30.5 15.8746H18.5ZM17.5 27.2503C17.5 27.7316 17.95 28.1254 18.5 28.1254H30.5C31.05 28.1254 31.5 27.7316 31.5 27.2503C31.5 26.7691 31.05 26.3753 30.5 26.3753H18.5C17.95 26.3753 17.5 26.7691 17.5 27.2503ZM18.5 21.1249C17.95 21.1249 17.5 21.5187 17.5 22C17.5 22.4813 17.95 22.8751 18.5 22.8751H30.5C31.05 22.8751 31.5 22.4813 31.5 22C31.5 21.5187 31.05 21.1249 30.5 21.1249H18.5Z" fill="#F78A58"/>
<circle cx="9.5" cy="9.5" r="9" fill="white" stroke="#F68A58"/>
<path d="M9.21992 13V7.52L8.04992 8.3L7.41992 7.28L9.49992 5.99H10.4099V13H9.21992Z" fill="black"/>
</svg>
