<svg width="600" height="601" viewBox="0 0 600 601" fill="none" xmlns="http://www.w3.org/2000/svg">
<path fill-rule="evenodd" clip-rule="evenodd" d="M115.378 0.333252H0V30.0368H92.6074L196.6 416.182H500.959L600 119.147H147.376L115.378 0.333252ZM252.257 600.333C271.948 600.333 287.911 584.375 287.911 564.689C287.911 545.003 271.948 529.045 252.257 529.045C232.565 529.045 216.602 545.003 216.602 564.689C216.602 584.375 232.565 600.333 252.257 600.333ZM430.53 600.333C450.222 600.333 466.185 584.375 466.185 564.689C466.185 545.003 450.222 529.045 430.53 529.045C410.839 529.045 394.875 545.003 394.875 564.689C394.875 584.375 410.839 600.333 430.53 600.333Z" fill="white"/>
</svg>
