<svg width="35" height="35" viewBox="0 0 35 35" fill="none" xmlns="http://www.w3.org/2000/svg">
<circle cx="17.5" cy="17.5" r="17.5" fill="white"/>
<mask id="mask0_517_1616" style="mask-type:alpha" maskUnits="userSpaceOnUse" x="0" y="0" width="35" height="35">
<circle cx="17.5" cy="17.5" r="17.5" fill="#D9D9D9"/>
</mask>
<g mask="url(#mask0_517_1616)">
<path d="M14.8292 18.5003L11.4322 11.5003L10.706 11.2196L9.88245 11.6313C9.88245 11.6313 9.66708 14.0672 9.77951 16.2355C9.82965 17.2024 9.7851 16.5444 9.88804 18.5003C9.91167 18.9491 9.9265 19.7207 9.7851 20.1473C9.56387 20.8148 9.21811 21.087 8.85863 21.6914C7.62496 23.7657 5.7704 27.0444 5.7704 27.0444C5.7704 27.0444 4.71811 28.8598 4.32922 30.1326C4.11262 30.8415 3.96175 31.2456 3.91746 31.9855C3.87156 32.7522 4.12334 33.9414 4.12334 33.9414L4.37601 35.3826H8.13804L8.0351 28.7944L9.2704 25.912L16.4763 23.3385V19.7355L14.8292 18.5003Z" fill="black"/>
<path d="M23.2704 11.0885L25.2207 10.8574C25.2207 10.8574 25.1038 12.3911 25.0204 13.3532C24.9399 14.2822 24.7627 14.7898 24.7116 15.7208C24.6741 16.4032 24.6407 16.7911 24.7116 17.4708C24.7754 18.0825 25.0204 19.015 25.0204 19.015C25.0204 19.015 25.2728 20.0412 25.5351 20.662C26.0428 21.8637 26.6773 22.3475 27.388 23.4414C27.9592 24.3205 28.3778 24.8164 28.9322 25.7061C29.2567 26.2269 29.241 26.2208 29.7557 26.9414C30.0513 27.3552 30.2704 27.9708 30.2704 27.9708C30.2704 27.9708 30.3733 28.4953 30.3733 28.8973V28.8973C30.3733 29.2993 30.3733 29.6179 30.0645 30.8532C29.7557 32.0885 29.7082 32.0305 29.6528 32.8091C29.6013 33.532 29.6226 33.9496 29.7557 34.662C29.8399 35.1126 30.0645 35.7944 30.0645 35.7944H27.5939L27.7998 29.6179L25.8439 26.7355L21.6233 24.265L19.5645 22.515V19.5297L22.0351 15.412L23.2704 11.0885Z" fill="black"/>
<path d="M23.3677 11.9119C23.2912 12.8684 23.1578 13.8108 22.9411 14.6913C22.5747 16.1798 21.9703 17.4917 21.0001 18.3972C20.6689 18.7063 20.3695 18.9969 20.0736 19.2578C19.3843 19.8655 18.7143 20.3119 17.706 20.456C17.2268 20.3282 16.7852 20.1608 16.3677 19.9568C15.4398 19.5034 14.631 18.8693 13.7942 18.0883C12.9774 17.326 12.4486 16.3908 12.086 15.2828C11.7632 14.2962 11.572 13.1726 11.4266 11.9119C11.4266 11.7738 11.4289 11.6365 11.4335 11.5001C11.5854 7.02943 14.1973 3.4707 17.3971 3.4707C20.5477 3.4707 23.1283 6.92067 23.352 11.2942C23.3624 11.4982 23.3677 11.7042 23.3677 11.9119Z" fill="#DBAE7F"/>
<path d="M11.4266 11.9119C11.4266 11.7738 11.4289 11.6365 11.4335 11.5001C11.4335 11.5001 11.1304 11.3845 11.0148 11.5001C10.603 11.9119 10.6297 12.1635 10.603 12.3236C10.5603 12.5801 10.5291 13.2475 10.603 13.7648C10.6678 14.2186 10.7648 14.4561 10.9118 14.8972C11.0148 15.206 11.3236 15.4119 11.3236 15.4119C11.3236 15.4119 11.6324 15.6178 11.9413 15.5148C12.0426 15.481 12.086 15.2828 12.086 15.2828C11.7632 14.2962 11.572 13.1726 11.4266 11.9119Z" fill="#DBAE7F"/>
<path d="M23.352 11.2942C23.3624 11.4982 23.3677 11.7042 23.3677 11.9119C23.2912 12.8684 23.1578 13.8108 22.9411 14.6913C22.9411 14.6913 23.1684 14.8737 23.3677 14.8972C23.6058 14.9252 23.9854 14.6913 23.9854 14.6913C23.9854 14.6913 24.5437 14.2209 24.706 13.7648C24.8817 13.271 24.7456 12.6895 24.603 12.2207L24.5985 12.2057C24.4223 11.6261 24.2898 11.1904 23.7795 11.0883C23.5978 11.052 23.352 11.2942 23.352 11.2942Z" fill="#DBAE7F"/>
<path d="M17.706 20.456C17.2268 20.3282 16.7852 20.1608 16.3677 19.9568C16.3677 19.9568 16.6537 21.1361 16.3677 21.7942C16.2743 22.0092 16.1925 22.1163 16.0589 22.3089C15.1667 23.5957 14.206 23.8531 12.5589 24.3678C11.0624 24.8354 9.94187 24.6809 8.85302 25.8089C8.47327 26.2024 8.27017 26.4503 8.02949 26.9413C7.68591 27.6422 7.64495 28.1171 7.61772 28.8972C7.59372 29.5849 7.82361 30.6472 7.82361 30.6472L8.02949 32.8089L8.23537 35.3825L27.7942 35.7942C27.7942 35.7942 28.2169 34.1149 28.3089 33.0148C28.386 32.0934 28.426 31.5726 28.4118 30.6472C28.4014 29.9627 28.3089 28.6165 28.3089 28.6165C28.3089 28.6165 28.2149 28.1663 28.103 27.8959C27.9545 27.5368 27.8124 27.3254 27.5883 27.0442C27.2825 26.6604 26.5589 26.3236 26.5589 26.3236L23.5736 24.7795C23.5736 24.7795 21.5896 23.8648 20.5883 22.9266C20.4224 22.7711 20.3859 22.7158 20.2795 22.5148C20.1651 22.2987 20.1062 22.1395 20.0736 21.8972C19.9364 20.8756 20.0736 19.2578 20.0736 19.2578C19.3843 19.8655 18.7143 20.3119 17.706 20.456Z" fill="#DBAE7F"/>
<path d="M21 16.3674C21 16.3674 20.8177 15.7052 20.5883 15.338C20.1324 14.6084 19.507 14.541 18.8383 13.9998C18.3061 13.5691 17.9394 13.3925 17.5 12.8674C17.221 12.5339 17.1096 12.3117 16.8824 11.941C16.5252 11.3583 16.2858 11.0415 16.0589 10.3968C15.8677 9.85392 15.75 8.95567 15.75 8.95567V5.55861C15.75 5.55861 15.853 5.66155 15.75 5.86744C15.6471 6.07332 15.6471 6.17626 15.4412 6.58802C15.1967 7.07709 15.0325 7.37417 14.7206 7.82332C14.2564 8.49196 13.4853 9.47038 13.4853 9.47038L12.6618 10.3968L11.4774 11.5573C11.4774 11.5573 11.2715 11.4544 11.1685 11.4544C11.0656 11.4544 9.88238 11.6321 9.88238 11.6321C9.88238 11.6321 9.86817 9.54208 9.98532 8.54391C10.0763 7.76866 10.3971 6.58802 10.3971 6.58802C10.3971 6.58802 10.8279 5.09304 11.4265 4.35145C11.8732 3.79801 12.2293 3.50444 12.8677 3.19096C13.4906 2.88509 14.2059 2.7792 14.6177 2.7792C15.0294 2.7792 16.2647 2.88214 16.2647 2.88214C16.2647 2.88214 16.7027 2.34582 17.0883 2.16155C17.7049 1.86686 18.162 1.83157 18.8383 1.93049C19.5145 2.02941 20.2041 2.25311 21 2.65108C21.8236 3.06284 22.3256 3.66782 22.75 4.09225C23.0589 4.40108 23.9853 6.15108 23.9853 6.15108C23.9853 6.15108 24.5443 7.58692 24.8089 8.54391C25.059 9.44847 25.2206 10.8864 25.2206 10.8864L23.4185 11.1456L23.2647 13.1763C23.2647 13.1763 23.047 12.5339 22.853 12.1468C22.6181 11.6783 22.4633 11.421 22.1324 11.0145C21.7192 10.507 20.8971 9.88214 20.8971 9.88214C20.8971 9.88214 20.0064 9.11335 19.353 8.74979C18.9285 8.51362 18.2206 8.23508 18.2206 8.23508C18.2206 8.23508 17.8326 8.00026 17.603 7.82332C17.0396 7.38919 16.3677 6.48508 16.3677 6.48508C16.3677 6.48508 16.3173 8.1892 16.4706 9.2645C16.5051 9.50658 16.4706 9.2645 16.5736 9.88214C16.6492 10.3362 16.6826 10.4461 16.8824 10.8086C17.1255 11.2498 17.4046 11.5373 17.7059 11.941C18.012 12.351 18.6324 12.8674 18.6324 12.8674C18.6324 12.8674 19.197 13.4321 19.5589 13.7939C19.8403 14.0753 20.2794 14.5145 20.2794 14.5145C20.2794 14.5145 20.6467 14.855 20.7941 15.1321C21.0239 15.5639 21 16.3674 21 16.3674Z" fill="black"/>
<path d="M14.9266 26.5593C14.243 25.7201 13.8972 23.9858 13.8972 23.9858L10.3972 24.8093C10.3972 24.8093 11.0159 25.394 11.3237 25.8387C11.7743 26.4898 12.0273 26.9318 12.2502 27.6916C12.479 28.4718 12.5236 28.9403 12.456 29.7505C12.3969 30.4604 12.1607 30.8227 11.9413 31.5005C11.6515 32.3958 11.1178 33.7652 11.1178 33.7652L11.9413 35.1034L20.3825 36.1328L25.3237 33.2505C25.3237 33.2505 24.706 32.2094 24.3972 31.5005C24.1079 30.836 23.9083 30.4637 23.7796 29.7505C23.6368 28.9592 23.6588 28.4865 23.7796 27.6916C23.9266 26.7238 24.6031 25.324 24.6031 25.324L22.0296 23.8828C22.0296 23.8828 21.6178 25.6328 21.1031 26.5593C20.6749 27.33 20.2787 27.7862 19.456 28.1034C18.6683 28.4071 18.0094 28.5176 17.1913 28.3093C16.1324 28.0396 15.634 27.4277 14.9477 26.5852L14.9266 26.5593Z" fill="#785757"/>
</g>
</svg>
