<svg width="800" height="800" viewBox="0 0 800 800" fill="none" xmlns="http://www.w3.org/2000/svg">
<path fill-rule="evenodd" clip-rule="evenodd" d="M700 333.333V700H333.333L333.357 566.667H399.996L399.973 633.333H633.361V400L600 399.999V399.967H566.684L566.685 333.333H700ZM166.667 566.667V633.359H266.667V700H100V566.667H166.667ZM566.667 466.667V566.667H466.667V466.667H566.667ZM500 100V399.967H433.333L433.333 166.667H166.667V433.333L400 433.333V500H100V100H500ZM366.667 233.333V366.667H233.333V233.333H366.667ZM566.667 99.9667L700 100V233.3L633.353 233.267V166.633H566.667V99.9667Z" fill="black"/>
<rect x="5" y="5" width="790" height="790" stroke="black" stroke-width="10"/>
</svg>
