<svg width="430" height="932" viewBox="0 0 430 932" fill="none" xmlns="http://www.w3.org/2000/svg">
<g clip-path="url(#clip0_490_1589)">
<mask id="mask0_490_1589" style="mask-type:luminance" maskUnits="userSpaceOnUse" x="-673" y="-304" width="1656" height="1668">
<path d="M128.06 1363.8L982.489 421.825L182.295 -304L-672.134 637.973L128.06 1363.8Z" fill="white"/>
</mask>
<g mask="url(#mask0_490_1589)">
<g filter="url(#filter0_f_490_1589)">
<path fill-rule="evenodd" clip-rule="evenodd" d="M699.482 170.199C696.164 213.056 631.166 223.573 612.259 262.177C593.037 301.424 629.849 367.448 592.096 389.461C553.305 412.08 511.529 345.801 466.644 347.082C423.916 348.302 383.257 423.96 350.622 396.354C313.228 364.722 380.961 292.991 354.203 251.968C327.61 211.198 248.608 238.191 221.213 197.955C196.801 162.101 200.753 101.887 230.573 70.3878C262.638 36.5162 324.924 67.7038 365.794 45.2295C401.651 25.5116 404.758 -59.1714 443.782 -46.8553C492.014 -31.6328 462.626 61.5158 504.981 89.158C539.929 111.965 588.411 56.6224 626.932 72.6727C664.981 88.5263 702.664 129.102 699.482 170.199Z" fill="#F78A58"/>
<path fill-rule="evenodd" clip-rule="evenodd" d="M279.034 689.719C235.52 732.928 199.852 796.981 138.823 802.982C77.607 809.001 37.164 738.006 -21.4222 719.264C-79.8864 700.561 -160.328 741.265 -200.14 694.544C-239.792 648.011 -189.996 575.792 -195.556 514.909C-200.879 456.626 -253.661 401.102 -231.902 346.772C-210.214 292.62 -145.142 269.265 -89.7949 250.84C-41.9077 234.899 8.43137 244.123 58.5489 250.084C104.042 255.495 149.178 261.107 188.87 283.987C230.588 308.034 259.198 346.05 289.688 383.319C331.574 434.518 403.011 476.822 400.713 542.932C398.458 607.76 325.064 644.012 279.034 689.719Z" fill="#D5E2CD"/>
<path fill-rule="evenodd" clip-rule="evenodd" d="M-103.231 88.473C-173.267 99.4586 -217.233 193.626 -287.654 185.46C-356.488 177.478 -413.98 114.002 -439.309 49.502C-463.636 -12.4472 -429.609 -79.4635 -417.379 -144.885C-407.476 -197.865 -412.787 -259.481 -374.465 -297.38C-336.987 -334.445 -271.051 -311.291 -224.369 -335.767C-173.371 -362.506 -151.562 -451.342 -94.423 -444.208C-37.686 -437.124 -30.7672 -353.407 3.133 -307.364C28.1975 -273.32 57.3027 -245.215 78.8608 -208.851C107.152 -161.128 145.742 -116.96 148.848 -61.5681C152.533 4.16798 154.154 91.3596 97.5786 125.034C37.9059 160.553 -34.6261 77.7121 -103.231 88.473Z" fill="#E5C682"/>
</g>
</g>
</g>
<defs>
<filter id="filter0_f_490_1589" x="-647.866" y="-644.614" width="1547.54" height="1647.96" filterUnits="userSpaceOnUse" color-interpolation-filters="sRGB">
<feFlood flood-opacity="0" result="BackgroundImageFix"/>
<feBlend mode="normal" in="SourceGraphic" in2="BackgroundImageFix" result="shape"/>
<feGaussianBlur stdDeviation="100" result="effect1_foregroundBlur_490_1589"/>
</filter>
<clipPath id="clip0_490_1589">
<rect width="430" height="932" fill="white"/>
</clipPath>
</defs>
</svg>
