<svg width="52" height="22" viewBox="0 0 52 22" fill="none" xmlns="http://www.w3.org/2000/svg">
<rect width="52" height="22" rx="2" fill="#7DA876"/>
<path d="M25.6033 16.044V15.12C24.8193 15.032 24.1993 14.752 23.7433 14.28C23.2873 13.808 23.0593 13.208 23.0593 12.48H24.1152C24.1152 12.904 24.2393 13.284 24.4873 13.62C24.7433 13.948 25.1153 14.16 25.6033 14.256V11.004C25.5473 10.988 25.4873 10.972 25.4233 10.956C25.3673 10.932 25.3113 10.912 25.2553 10.896C24.6073 10.672 24.1273 10.396 23.8153 10.068C23.5033 9.732 23.3473 9.296 23.3473 8.76C23.3393 8.136 23.5353 7.616 23.9353 7.2C24.3433 6.784 24.8993 6.544 25.6033 6.48V5.508H26.4313V6.48C27.1033 6.56 27.6393 6.812 28.0393 7.236C28.4393 7.66 28.6433 8.176 28.6513 8.784H27.5953C27.5953 8.488 27.4993 8.204 27.3073 7.932C27.1153 7.652 26.8233 7.464 26.4313 7.368V10.272C26.4953 10.288 26.5593 10.308 26.6233 10.332C26.6873 10.356 26.7553 10.376 26.8273 10.392C27.2273 10.536 27.5873 10.704 27.9073 10.896C28.2273 11.088 28.4753 11.336 28.6513 11.64C28.8353 11.944 28.9273 12.332 28.9273 12.804C28.9273 13.18 28.8353 13.536 28.6513 13.872C28.4673 14.208 28.1873 14.492 27.8113 14.724C27.4433 14.956 26.9833 15.092 26.4313 15.132V16.044H25.6033ZM24.3913 8.664C24.3913 9.032 24.4993 9.312 24.7153 9.504C24.9313 9.688 25.2273 9.848 25.6033 9.984V7.344C25.2433 7.4 24.9513 7.544 24.7273 7.776C24.5033 8 24.3913 8.296 24.3913 8.664ZM27.8833 12.864C27.8833 12.4 27.7473 12.056 27.4753 11.832C27.2033 11.608 26.8553 11.424 26.4313 11.28V14.28C26.8953 14.224 27.2513 14.064 27.4993 13.8C27.7553 13.536 27.8833 13.224 27.8833 12.864Z" fill="white"/>
</svg>
